<?xml version="1.0" encoding="UTF-8"?>
<svg id="Calque_2" data-name="Calque 2" xmlns="http://www.w3.org/2000/svg" viewBox="0 0 2502.45 997.17">
  <defs>
    <style>
      .cls-1 {
        fill: #2f2873;
      }

      .cls-1, .cls-2, .cls-3 {
        stroke-width: 0px;
      }

      .cls-2 {
        fill: #fff;
      }

      .cls-3 {
        fill: #009fe3;
      }
    </style>
  </defs>
  <g id="Calque_1-2" data-name="Calque 1">
    <rect class="cls-1" width="2502.45" height="997.17"/>
    <path class="cls-2" d="M153.86,238.05h85v106.38h89.07v84.49h-89.07v68.21c0,40.72,33.08,72.28,76.35,72.28h12.72v84.49h-12.72c-86.53,0-161.35-67.7-161.35-156.76v-68.21h-42.24v-84.49h42.24v-106.38Z"/>
    <path class="cls-2" d="M704.07,301.68v381.74h-85v-49.37c-22.4,12.72-47.85,19.85-76.35,19.85-89.07,0-160.84-71.76-160.84-160.84s71.76-161.35,160.84-161.35c28.5,0,53.95,7.13,76.35,19.85v-49.88h85ZM466.89,493.05c0,42.24,33.59,75.84,75.84,75.84s76.35-33.59,76.35-75.84-34.1-76.35-76.35-76.35-75.84,34.1-75.84,76.35Z"/>
    <path class="cls-2" d="M794.16,238.05h85v106.38h89.07v84.49h-89.07v68.21c0,40.72,33.08,72.28,76.34,72.28h12.72v84.49h-12.72c-86.53,0-161.35-67.7-161.35-156.76v-68.21h-42.24v-84.49h42.24v-106.38Z"/>
    <path class="cls-2" d="M1074.61,318.98c-28.5,0-50.9-22.9-50.9-50.9s22.4-50.9,50.9-50.9,50.9,22.4,50.9,50.9-22.9,50.9-50.9,50.9ZM1116.85,641.17h-85v-296.74h85v296.74Z"/>
    <path class="cls-2" d="M1206.94,238.05h85v106.38h89.07v84.49h-89.07v68.21c0,40.72,33.08,72.28,76.35,72.28h12.72v84.49h-12.72c-86.53,0-161.35-67.7-161.35-156.76v-68.21h-42.25v-84.49h42.25v-106.38Z"/>
    <path class="cls-3" d="M1757.15,493.05c0,89.07-72.28,160.84-161.35,160.84s-160.84-71.76-160.84-160.84,71.77-161.35,160.84-161.35,161.35,72.28,161.35,161.35ZM1519.96,493.05c0,42.24,33.59,75.84,75.84,75.84s76.35-33.59,76.35-75.84-34.11-76.35-76.35-76.35-75.84,34.1-75.84,76.35Z"/>
    <path class="cls-2" d="M1839.16,238.05h85v106.38h89.07v84.49h-89.07v68.21c0,40.72,33.08,72.28,76.35,72.28h12.72v84.49h-12.72c-86.53,0-161.35-67.7-161.35-156.76v-68.21h-42.25v-84.49h42.25v-106.38Z"/>
    <path class="cls-3" d="M2153.13,492.54c0,42.75,33.59,76.35,76.35,76.35s76.35-33.59,76.35-76.35v-148.11h85v148.11c0,89.07-72.28,161.35-161.35,161.35s-161.35-72.28-161.35-161.35v-148.11h85v148.11Z"/>
    <path class="cls-3" d="M2138.05,693.75c-.04,105.77-104.1,191.42-232.51,191.42s-232.46-85.65-232.51-191.42h76.49c9.16,35.71,30.25,66.58,58.74,88.12,26.95,20.39,60.51,32.41,97.01,32.41s69.93-11.93,96.88-32.15c28.8-21.58,50.11-52.49,59.36-88.38h76.53Z"/>
  </g>
</svg>